<svg width="69" height="69" fill="none" xmlns="http://www.w3.org/2000/svg"><path fill-rule="evenodd" clip-rule="evenodd" d="M34.5 69C53.554 69 69 53.554 69 34.5 69 15.446 53.554 0 34.5 0 15.446 0 0 15.446 0 34.5 0 53.554 15.446 69 34.5 69Z" fill="#5454D4" fill-opacity=".1"/><path d="M28.013 47.333h13.974c3.68 0 5.146-2.253 5.32-5L48 31.32c.187-2.88-2.107-5.32-5-5.32a2.19 2.19 0 0 1-1.933-1.187l-.96-1.933c-.614-1.213-2.214-2.213-3.574-2.213H33.48c-1.373 0-2.973 1-3.587 2.213l-.96 1.933A2.19 2.19 0 0 1 27 26c-2.893 0-5.187 2.44-5 5.32l.693 11.013c.16 2.747 1.64 5 5.32 5ZM33 28.667h4" stroke="#5454D4" stroke-width="2" stroke-linecap="round" stroke-linejoin="round"/><path d="M35 42a4.342 4.342 0 0 0 4.333-4.333A4.342 4.342 0 0 0 35 33.333a4.342 4.342 0 0 0-4.334 4.334A4.342 4.342 0 0 0 35 42Z" stroke="#5454D4" stroke-width="2" stroke-linecap="round" stroke-linejoin="round"/></svg>