<svg width="1600" height="900" viewBox="0 0 1600 900" fill="none" xmlns="http://www.w3.org/2000/svg">
<g clip-path="url(#clip0_1_49)">
<path d="M0 0V900" stroke="#444444" stroke-opacity="0.2"/>
<path d="M100 0V900" stroke="#444444" stroke-opacity="0.2"/>
<path d="M200 0V900" stroke="#444444" stroke-opacity="0.2"/>
<path d="M300 0V900" stroke="#444444" stroke-opacity="0.2"/>
<path d="M400 0V900" stroke="#444444" stroke-opacity="0.2"/>
<path d="M500 0V900" stroke="#444444" stroke-opacity="0.2"/>
<path d="M600 0V900" stroke="#444444" stroke-opacity="0.2"/>
<path d="M700 0V900" stroke="#444444" stroke-opacity="0.2"/>
<path d="M800 0V900" stroke="#444444" stroke-opacity="0.2"/>
<path d="M900 0V900" stroke="#444444" stroke-opacity="0.2"/>
<path d="M1000 0V900" stroke="#444444" stroke-opacity="0.2"/>
<path d="M1100 0V900" stroke="#444444" stroke-opacity="0.2"/>
<path d="M1200 0V900" stroke="#444444" stroke-opacity="0.2"/>
<path d="M1300 0V900" stroke="#444444" stroke-opacity="0.2"/>
<path d="M1400 0V900" stroke="#444444" stroke-opacity="0.2"/>
<path d="M1500 0V900" stroke="#444444" stroke-opacity="0.2"/>
<path d="M1600 0V900" stroke="#444444" stroke-opacity="0.2"/>
<path d="M0 100.773L1600 100.773" stroke="#444444" stroke-opacity="0.2"/>
<path d="M0 0.772569L1600 0.772461" stroke="#444444" stroke-opacity="0.2"/>
<path d="M0 200.773H1600" stroke="#444444" stroke-opacity="0.2"/>
<path d="M0 300.773H1600" stroke="#444444" stroke-opacity="0.2"/>
<path d="M0 400.773H1600" stroke="#444444" stroke-opacity="0.2"/>
<path d="M0 500.773H1600" stroke="#444444" stroke-opacity="0.2"/>
<path d="M0 600.773H1600" stroke="#444444" stroke-opacity="0.2"/>
<path d="M0 700.773H1600" stroke="#444444" stroke-opacity="0.2"/>
<path d="M0 800.773H1600" stroke="#444444" stroke-opacity="0.2"/>
</g>
<defs>
<clipPath id="clip0_1_49">
<rect width="1600" height="900" fill="white"/>
</clipPath>
</defs>
</svg>
