<svg width="1600" height="6488" viewBox="0 0 1600 6488" fill="none" xmlns="http://www.w3.org/2000/svg">
<g opacity="0.5" filter="url(#filter0_f_403_311)">
<path d="M1167.47 -14.8568C1286.89 -41.6645 1307.16 -35.6794 1562.77 -260.858C1813.07 15.2512 1504.79 96.2107 1542.16 274.549C1523.48 657.139 1476.28 278.948 1364.09 225.11C1207.52 313.786 1093.59 139.103 1167.47 -14.8568Z" fill="url(#paint0_linear_403_311)"/>
</g>
<g opacity="0.5" filter="url(#filter1_f_403_311)">
<path d="M1022.24 959.352C789.435 910.719 743.126 891.301 353.039 964.989C-349.313 510.946 244.126 624.052 50.8051 410.976C-156.9 17.6367 185.94 448.815 455.644 578.242C726.341 585.288 1077.65 843.882 1022.24 959.352Z" fill="url(#paint1_linear_403_311)"/>
</g>
<g filter="url(#filter2_f_403_311)">
<rect x="-427" y="2720.59" width="467" height="1233.79" rx="233.5" transform="rotate(-54.3739 -427 2720.59)" fill="url(#paint2_linear_403_311)" fill-opacity="0.27"/>
</g>
<g filter="url(#filter3_f_403_311)">
<rect x="-427" y="5561.59" width="467" height="1233.79" rx="233.5" transform="rotate(-54.3739 -427 5561.59)" fill="url(#paint3_linear_403_311)" fill-opacity="0.27"/>
</g>
<g opacity="0.5" filter="url(#filter4_f_403_311)">
<path d="M-185.172 887.989C25.08 1125.37 59.1455 1183.01 535.008 1414.8C924.631 2459.63 659.353 1187.61 696.447 1569.42C605.391 2155.47 302.72 2099.89 117.332 1746.72C-166.562 1523.65 -336.376 967.361 -185.172 887.989Z" fill="url(#paint4_linear_403_311)" fill-opacity="0.7"/>
</g>
<g opacity="0.5" filter="url(#filter5_f_403_311)">
<path d="M-250.109 4559.83C6.59811 4373.67 67.2781 4345.38 344.272 3894.33C1422.05 3608.2 130.26 3748.47 513.867 3748.7C1088.28 3896.34 1003.51 4192.17 633.98 4342.31C384.342 4603.16 -185.825 4718.04 -250.109 4559.83Z" fill="url(#paint5_linear_403_311)" fill-opacity="0.7"/>
</g>
<g opacity="0.5" filter="url(#filter6_f_403_311)">
<path d="M1956.58 2358.72C1704.48 2166.37 1659.93 2116.38 1148.29 1980.75C564.409 1030.72 1070.11 2227.66 960.052 1860.18C936.332 1267.57 1244.04 1263.72 1494.08 1574.48C1815.68 1738.6 2089.63 2251.67 1956.58 2358.72Z" fill="url(#paint6_linear_403_311)" fill-opacity="0.7"/>
</g>
<g filter="url(#filter7_f_403_311)">
<rect x="941.5" y="3083.33" width="467" height="1233.79" rx="233.5" transform="rotate(-120 941.5 3083.33)" fill="url(#paint7_linear_403_311)" fill-opacity="0.27"/>
</g>
<g filter="url(#filter8_f_403_311)">
<rect x="941.5" y="5956.33" width="467" height="1233.79" rx="233.5" transform="rotate(-120 941.5 5956.33)" fill="url(#paint8_linear_403_311)" fill-opacity="0.27"/>
</g>
<g opacity="0.5">
<path d="M136.949 1983.26C164.074 1738.36 436.256 1582.89 640.744 1586.01C876.393 1589.65 965.208 1803.06 1144.54 1738.15C1308.19 1678.99 1317.83 1470.89 1438.14 1438.1C1548.71 1407.97 1723.67 1533.78 2012 2156.53" stroke="black" stroke-opacity="0.3" stroke-miterlimit="10"/>
<path d="M1998.25 2184.13C1713.43 1570.37 1538.36 1439.7 1426.23 1464.26C1343.12 1482.6 1311.09 1583.64 1246.06 1662.63C1213.61 1703.29 1173.69 1733.1 1129.89 1749.39C986.426 1802.89 900.914 1684.48 747.607 1633.68C708.531 1620.58 668.374 1613.35 627.964 1612.13C422.643 1605.07 153.496 1739.84 122.167 1975.82" stroke="black" stroke-opacity="0.3" stroke-miterlimit="10"/>
<path d="M1984.48 2211.64C1703.15 1606.93 1528.09 1471.44 1414.62 1490.46C1331.21 1504.45 1297.28 1600.68 1232.12 1675.65C1198.89 1714.85 1159.03 1743.91 1115.58 1760.64C974.183 1815.03 888.705 1708.36 734.864 1659.93C695.768 1647.52 655.763 1640.26 615.488 1638.29C409.299 1628.11 143.222 1741.32 107.689 1968.39" stroke="black" stroke-opacity="0.3" stroke-miterlimit="10"/>
<path d="M1970.73 2239.07C1692.97 1643.53 1517.81 1503.27 1402.87 1516.62C1319.1 1526.34 1283.4 1617.67 1218.01 1688.67C1184.07 1726.38 1144.3 1754.72 1101.23 1771.88C961.771 1827.15 876.626 1732.19 722.084 1686.17C682.952 1674.33 643.052 1667.02 602.875 1664.32C395.852 1650.55 132.845 1742.67 93.1081 1960.82" stroke="black" stroke-opacity="0.3" stroke-miterlimit="10"/>
<path d="M1956.98 2266.71C1682.73 1680.08 1507.6 1535.13 1391.1 1542.82C1307.05 1548.32 1269.42 1634.74 1203.83 1701.64C1169.16 1737.88 1129.4 1765.52 1086.65 1783.12C949.125 1839.28 864.214 1756.07 708.905 1712.41C669.815 1701.27 630.106 1693.95 590.13 1690.52C382.239 1673.15 122.301 1744.24 78.3273 1953.47" stroke="black" stroke-opacity="0.3" stroke-miterlimit="10"/>
<path d="M1943.37 2294.26C1672.52 1716.64 1497.29 1562.9 1379.32 1568.98C1295.11 1573.21 1255.44 1651.52 1189.71 1714.65C1154.33 1749.37 1114.6 1776.31 1072.17 1794.36C936.58 1851.41 851.969 1779.95 696.127 1738.7C657.05 1728.13 617.476 1720.76 577.651 1716.64C368.893 1695.51 112.025 1745.67 63.8472 1946.03" stroke="black" stroke-opacity="0.3" stroke-miterlimit="10"/>
<path d="M1929.46 2321.82C1662.28 1753.24 1487.19 1599.16 1367.58 1594.93C1283.1 1592.48 1241.4 1668.55 1175.57 1727.71C1139.52 1760.89 1099.8 1787.14 1057.7 1805.64C924.041 1863.58 839.631 1803.83 683.221 1764.99C644.154 1755.05 604.71 1747.66 565.046 1742.84C355.42 1718.12 101.621 1747.07 49.2397 1938.64" stroke="black" stroke-opacity="0.3" stroke-miterlimit="10"/>
<path d="M1915.71 2349.37C1652.14 1789.79 1477.01 1630.93 1355.8 1621.34C1271.12 1614.5 1227.28 1685.2 1161.42 1740.69C1124.72 1772.28 1085 1797.84 1043.21 1816.76C911.524 1875.62 827.313 1827.66 670.303 1791.1C633.769 1782.65 594.767 1774.54 552.428 1768.83C341.902 1740.39 91.2057 1748.59 34.6205 1931.16" stroke="black" stroke-opacity="0.3" stroke-miterlimit="10"/>
<path d="M1901.97 2376.92C1641.83 1826.39 1466.84 1663.18 1344.06 1647.42C1259.15 1636.56 1213.14 1701.89 1147.21 1753.62C1109.86 1783.62 1070.12 1808.54 1028.64 1827.95C898.883 1887.71 814.939 1851.41 657.295 1817.35C620.595 1809.4 581.692 1801.37 539.687 1794.95C328.56 1762.83 80.8 1750.07 20.0109 1923.68" stroke="black" stroke-opacity="0.3" stroke-miterlimit="10"/>
<path d="M1888.19 2404.44C1631.58 1862.95 1456.66 1695.34 1332.28 1673.7C1247.17 1658.87 1198.82 1718.67 1133.16 1766.68C1095.22 1795.07 1055.45 1819.36 1014.29 1839.28C886.435 1899.93 802.725 1875.37 644.48 1843.51C607.78 1836.07 568.844 1828.04 527.172 1820.94C314.945 1784.93 70.3871 1751.29 5.39426 1916.03" stroke="black" stroke-opacity="0.3" stroke-miterlimit="10"/>
<path d="M1874.44 2431.99C1621.37 1899.5 1446.48 1727.59 1320.6 1699.86C1235.29 1681.1 1184.74 1735.28 1119.08 1779.74C1080.55 1806.46 1040.73 1830.1 999.871 1850.52C873.989 1912.06 790.513 1899.21 631.634 1869.96C594.767 1863.12 555.931 1855.05 514.626 1847.31C301.531 1807.42 60.0766 1752.99 -9.18682 1908.8" stroke="black" stroke-opacity="0.3" stroke-miterlimit="10"/>
<path d="M1860.69 2459.55C1611.13 1936.1 1436.24 1759.83 1308.75 1726.02C1223.21 1703.37 1170.43 1751.85 1104.9 1792.75C1067.23 1816.25 1028.66 1839.96 985.324 1861.77C861.377 1924.14 778.134 1923.09 618.655 1896.21C581.687 1889.91 542.918 1881.8 501.881 1873.43C287.918 1829.65 49.5331 1754.42 -23.9008 1901.37" stroke="black" stroke-opacity="0.3" stroke-miterlimit="10"/>
<path d="M1846.95 2487.1C1600.89 1972.83 1426.23 1792.16 1297.01 1752.22C1211.23 1725.64 1156.11 1768.33 1090.75 1805.77C1052.18 1827.87 1013.52 1850.9 970.843 1873.01C848.831 1936.4 765.855 1946.92 605.742 1922.45C568.675 1916.75 529.939 1908.59 489.335 1899.55C274.539 1851.79 39.1898 1755.86 -38.448 1893.92" stroke="black" stroke-opacity="0.3" stroke-miterlimit="10"/>
<path d="M1833.27 2514.65C1590.68 2009.25 1415.86 1824.53 1285.27 1778.43C1199.26 1748.04 1141.8 1784.77 1076.61 1818.83C1037.11 1839.45 998.373 1861.85 956.501 1884.29C836.391 1948.44 753.715 1970.84 592.834 1948.78C555.634 1943.58 516.998 1935.38 476.728 1925.75C261.064 1873.94 28.7843 1757.3 -53.0573 1886.49" stroke="black" stroke-opacity="0.3" stroke-miterlimit="10"/>
<path d="M1819.42 2542.16C1580.43 2045.81 1405.7 1856.99 1273.48 1804.59C1187.2 1770.35 1127.45 1801.08 1062.49 1831.8C1022.05 1850.9 983.183 1872.75 941.879 1895.49C823.77 1960.53 741.261 1994.63 579.914 1974.98C541.012 1969.73 502.348 1961.96 464.074 1951.7C247.609 1896.04 18.2658 1758.82 -67.6796 1879.01" stroke="black" stroke-opacity="0.3" stroke-miterlimit="10"/>
<path d="M1805.67 2569.72C1570.19 2082.41 1395.3 1889.32 1261.84 1830.75C1175.3 1792.71 1113.21 1817.35 1048.31 1844.82C1006.94 1862.36 968.007 1883.66 927.403 1906.73C811.197 1972.66 728.955 2018.51 567.073 2001.23C528.205 1996.61 489.612 1988.83 451.534 1977.94C234.168 1917.89 7.96089 1760.25 -82.3218 1871.4" stroke="black" stroke-opacity="0.3" stroke-miterlimit="10"/>
<path d="M1791.93 2597.27C1559.99 2118.96 1384.89 1921.94 1249.97 1856.9C1163.22 1815.15 1098.76 1833.53 1034.21 1857.79C991.9 1873.72 952.897 1894.6 912.961 1917.97C798.723 1984.79 716.681 2042.35 554.099 2027.47C515.266 2023.44 476.739 2015.61 438.86 2004.06C220.76 1940.03 -2.44471 1761.73 -96.9313 1864.13" stroke="black" stroke-opacity="0.3" stroke-miterlimit="10"/>
<path d="M1778.15 2624.82C1549.74 2155.73 1374.75 1954.44 1238.22 1883.11C1151.11 1837.55 1084.41 1849.63 1020.09 1870.81C976.715 1885.05 937.746 1905.5 898.477 1929.21C786.174 1996.83 704.399 2066.22 541.183 2053.75C502.39 2050.28 463.923 2042.41 426.244 2030.22C207.343 1962.01 -12.8582 1763.17 -111.549 1856.69" stroke="black" stroke-opacity="0.3" stroke-miterlimit="10"/>
<path d="M1764.41 2652.38C1539.67 2192.12 1364.41 1987.02 1226.45 1909.43C1139.04 1860.16 1070.11 1865.86 1005.95 1884.08C961.739 1896.76 922.537 1916.7 884.002 1940.71C773.634 2009.3 692.092 2090.35 528.276 2080.17C489.525 2077.26 451.112 2069.33 413.637 2056.5C193.936 1984.07 -23.4296 1764.9 -126.157 1849.42" stroke="black" stroke-opacity="0.3" stroke-miterlimit="10"/>
<path d="M1750.66 2679.93C1529.29 2228.72 1354.03 2019.61 1214.7 1935.47C1126.92 1882.43 1055.79 1881.67 991.799 1896.84C946.658 1907.58 907.422 1927.4 869.521 1951.78C761.121 2021.26 679.813 2114.02 515.363 2106.33C476.654 2104 438.287 2096.01 401.025 2082.54C180.556 2005.75 -33.6735 1766.09 -140.772 1841.82" stroke="black" stroke-opacity="0.3" stroke-miterlimit="10"/>
<path d="M1736.88 2707.45C1519.05 2265.27 1343.65 2052.4 1203.06 1961.63C1114.94 1904.91 1041.64 1897.6 977.816 1909.86C931.741 1918.69 892.405 1938.3 855.204 1962.89C748.706 2033.3 667.632 2137.81 502.581 2132.49C463.909 2130.69 425.575 2122.66 388.51 2108.57C167.44 2027.09 -43.9532 1767.56 -155.322 1834.34" stroke="black" stroke-opacity="0.3" stroke-miterlimit="10"/>
<path d="M1723.17 2735C1375.38 2031.99 1129.56 1898.36 963.538 1922.87C782.306 1949.62 713.142 2162.66 489.537 2158.77C227.23 2154.17 -34.9097 1759.2 -170 1826.9" stroke="black" stroke-opacity="0.3" stroke-miterlimit="10"/>
</g>
<g opacity="0.5" clip-path="url(#clip0_403_311)">
<path d="M718.469 3905.26C697.92 3660.36 491.725 3504.89 336.813 3508.01C158.294 3511.65 91.0108 3725.06 -44.8436 3660.15C-168.819 3600.99 -176.123 3392.89 -267.266 3360.1C-351.028 3329.97 -483.571 3455.78 -702 4078.53" stroke="black" stroke-opacity="0.3" stroke-miterlimit="10"/>
<path d="M-691.586 4106.13C-475.811 3492.37 -343.192 3361.7 -258.242 3386.26C-195.281 3404.6 -171.017 3505.64 -121.756 3584.63C-97.1685 3625.29 -66.9272 3655.1 -33.7472 3671.39C74.9364 3724.89 139.717 3606.48 255.857 3555.68C285.459 3542.58 315.881 3535.35 346.494 3534.13C502.037 3527.07 705.933 3661.84 729.666 3897.82" stroke="black" stroke-opacity="0.3" stroke-miterlimit="10"/>
<path d="M-681.148 4133.64C-468.028 3528.93 -335.408 3393.44 -249.447 3412.46C-186.259 3426.45 -160.554 3522.68 -111.192 3597.65C-86.0156 3636.85 -55.8195 3665.91 -22.9053 3682.64C84.2112 3737.03 148.966 3630.36 265.511 3581.93C295.128 3569.52 325.435 3562.26 355.945 3560.29C512.146 3550.11 713.716 3663.32 740.635 3890.39" stroke="black" stroke-opacity="0.3" stroke-miterlimit="10"/>
<path d="M-670.734 4161.07C-460.318 3565.53 -327.623 3425.27 -240.55 3438.62C-177.084 3448.34 -150.039 3539.67 -100.5 3610.67C-74.789 3648.38 -44.6609 3676.72 -12.0362 3693.88C93.6143 3749.15 158.117 3654.19 275.192 3608.17C304.837 3596.33 335.064 3589.02 365.5 3586.32C522.333 3572.55 721.578 3664.67 751.68 3882.82" stroke="black" stroke-opacity="0.3" stroke-miterlimit="10"/>
<path d="M-660.32 4188.71C-452.558 3602.08 -319.888 3457.13 -231.627 3464.82C-167.959 3470.32 -139.448 3556.74 -89.7569 3623.64C-63.493 3659.88 -33.3784 3687.52 -0.990316 3705.12C103.194 3761.28 167.52 3678.07 285.176 3634.41C314.789 3623.27 344.871 3615.95 375.156 3612.52C532.646 3595.15 729.565 3666.24 762.878 3875.47" stroke="black" stroke-opacity="0.3" stroke-miterlimit="10"/>
<path d="M-650.008 4216.26C-444.823 3638.64 -312.078 3484.9 -222.705 3490.98C-158.91 3495.21 -128.858 3573.52 -79.0654 3636.65C-52.2612 3671.37 -22.1612 3698.31 9.97924 3716.36C112.698 3773.41 176.796 3701.95 294.856 3660.7C324.46 3650.13 354.439 3642.76 384.609 3638.64C542.756 3617.51 737.35 3667.67 773.848 3868.03" stroke="black" stroke-opacity="0.3" stroke-miterlimit="10"/>
<path d="M-639.473 4243.82C-437.068 3675.24 -304.424 3521.16 -213.812 3516.93C-149.815 3514.48 -118.221 3590.55 -68.3532 3649.71C-41.0389 3682.88 -10.9498 3709.14 20.9442 3727.64C122.197 3785.58 186.143 3725.83 304.634 3686.99C334.229 3677.05 364.11 3669.66 394.158 3664.84C552.963 3640.12 745.232 3669.07 784.914 3860.64" stroke="black" stroke-opacity="0.3" stroke-miterlimit="10"/>
<path d="M-629.055 4271.37C-429.38 3711.79 -296.711 3552.93 -204.886 3543.34C-140.737 3536.5 -107.525 3607.2 -57.632 3662.69C-29.8295 3694.28 0.261494 3719.84 31.9181 3738.76C131.68 3797.63 195.474 3749.66 314.42 3713.1C342.096 3704.65 371.643 3696.54 403.717 3690.83C563.204 3662.39 753.122 3670.59 795.989 3853.16" stroke="black" stroke-opacity="0.3" stroke-miterlimit="10"/>
<path d="M-618.645 4298.92C-421.573 3748.39 -289.005 3585.18 -195.992 3569.42C-131.666 3558.56 -96.8118 3623.89 -46.8679 3675.62C-18.5763 3705.62 11.534 3730.54 42.9603 3749.96C141.256 3809.71 204.848 3773.41 324.274 3739.35C352.077 3731.4 381.547 3723.37 413.369 3716.95C573.311 3684.83 761.005 3672.07 807.056 3845.68" stroke="black" stroke-opacity="0.3" stroke-miterlimit="10"/>
<path d="M-608.203 4326.44C-413.811 3784.95 -281.293 3617.34 -187.067 3595.7C-122.59 3580.87 -85.9661 3640.67 -36.2244 3688.68C-7.48107 3717.07 22.6445 3741.36 53.8313 3761.28C150.686 3821.93 214.102 3797.37 333.982 3765.51C361.785 3758.07 391.281 3750.04 422.85 3742.94C583.626 3706.93 768.893 3673.29 818.13 3838.03" stroke="black" stroke-opacity="0.3" stroke-miterlimit="10"/>
<path d="M-597.789 4353.99C-406.076 3821.5 -273.583 3649.59 -178.22 3621.86C-113.591 3603.1 -75.2992 3657.28 -25.5575 3701.74C3.63227 3728.46 33.7941 3752.1 64.751 3772.52C160.114 3834.06 223.353 3821.21 343.714 3791.96C371.643 3785.12 401.063 3777.05 432.354 3769.31C593.787 3729.42 776.704 3674.99 829.175 3830.8" stroke="black" stroke-opacity="0.3" stroke-miterlimit="10"/>
<path d="M-587.375 4381.55C-398.316 3858.1 -265.823 3681.83 -169.247 3648.03C-104.441 3625.37 -64.4555 3673.85 -14.8149 3714.75C13.7209 3738.25 42.939 3761.96 75.7716 3783.77C169.669 3846.14 232.731 3845.09 353.547 3818.21C381.551 3811.91 410.921 3803.8 442.01 3795.43C604.1 3751.65 784.692 3676.42 840.322 3823.37" stroke="black" stroke-opacity="0.3" stroke-miterlimit="10"/>
<path d="M-576.961 4409.1C-390.556 3894.83 -258.24 3714.16 -160.349 3674.22C-95.3665 3647.64 -53.6118 3690.33 -4.09759 3727.77C25.1206 3749.87 54.4146 3772.9 86.7416 3795.01C179.173 3858.4 242.033 3868.92 363.329 3844.45C391.409 3838.75 420.754 3830.59 451.514 3821.55C614.236 3773.79 792.527 3677.86 851.343 3815.92" stroke="black" stroke-opacity="0.3" stroke-miterlimit="10"/>
<path d="M-566.602 4436.65C-382.825 3931.25 -250.383 3746.53 -151.456 3700.43C-86.2961 3670.04 -42.7721 3706.77 6.61573 3740.83C36.5416 3761.45 65.8862 3783.85 97.6066 3806.29C188.597 3870.44 251.23 3892.84 373.107 3870.78C401.289 3865.58 430.557 3857.38 461.065 3847.75C624.444 3795.94 800.41 3679.3 862.41 3808.49" stroke="black" stroke-opacity="0.3" stroke-miterlimit="10"/>
<path d="M-556.105 4464.16C-375.059 3967.81 -242.692 3778.99 -142.527 3726.59C-77.1648 3692.35 -31.8969 3723.08 17.314 3753.8C47.9476 3772.9 77.3933 3794.75 108.684 3817.49C198.158 3882.53 260.664 3916.63 382.895 3896.98C412.366 3891.73 441.656 3883.96 470.651 3873.7C634.637 3818.04 808.379 3680.82 873.488 3801.01" stroke="black" stroke-opacity="0.3" stroke-miterlimit="10"/>
<path d="M-545.695 4491.72C-367.303 4004.41 -234.81 3811.32 -133.709 3752.75C-68.1449 3714.71 -21.1077 3739.35 28.0526 3766.82C59.3939 3784.36 88.8902 3805.66 119.65 3828.73C207.684 3894.66 269.987 3940.51 392.623 3923.23C422.067 3918.61 451.304 3910.83 480.151 3899.94C644.819 3839.89 816.185 3682.25 884.58 3793.4" stroke="black" stroke-opacity="0.3" stroke-miterlimit="10"/>
<path d="M-535.285 4519.27C-359.572 4040.96 -226.927 3843.94 -124.714 3778.9C-58.9985 3737.15 -10.1667 3755.53 38.7409 3779.79C70.7899 3795.72 100.337 3816.6 130.591 3839.97C217.134 3906.79 279.285 3964.35 402.452 3949.47C431.869 3945.44 461.057 3937.61 489.752 3926.06C654.977 3862.03 824.068 3683.73 895.647 3786.13" stroke="black" stroke-opacity="0.3" stroke-miterlimit="10"/>
<path d="M-524.844 4546.82C-351.809 4077.73 -219.241 3876.44 -115.814 3805.11C-49.8207 3759.55 0.704517 3771.63 49.4352 3792.81C82.293 3807.05 111.814 3827.5 141.563 3851.21C226.64 3918.83 288.59 3988.22 412.236 3975.75C441.624 3972.28 470.765 3964.41 499.309 3952.22C665.14 3884.01 831.957 3685.17 906.721 3778.69" stroke="black" stroke-opacity="0.3" stroke-miterlimit="10"/>
<path d="M-514.434 4574.38C-344.18 4114.12 -211.409 3909.02 -106.896 3831.43C-40.6744 3782.16 11.5442 3787.86 60.1485 3806.08C93.6382 3818.76 123.337 3838.7 152.53 3862.71C236.14 3931.3 297.913 4012.35 422.014 4002.17C451.37 3999.26 480.47 3991.33 508.86 3978.5C675.297 3906.07 839.965 3686.9 917.788 3771.42" stroke="black" stroke-opacity="0.3" stroke-miterlimit="10"/>
<path d="M-504.02 4601.93C-336.318 4150.72 -203.547 3941.61 -97.9981 3857.47C-31.4989 3804.43 22.3879 3803.67 70.8658 3818.84C105.063 3829.58 134.787 3849.4 163.5 3873.78C245.619 3943.26 307.215 4036.02 431.796 4028.33C461.12 4026 490.186 4018.01 518.415 4004.54C685.433 3927.75 847.726 3688.09 928.859 3763.82" stroke="black" stroke-opacity="0.3" stroke-miterlimit="10"/>
<path d="M-493.578 4629.45C-328.556 4187.27 -195.684 3974.4 -89.1742 3883.63C-22.4223 3826.91 33.1074 3819.6 81.459 3831.86C116.364 3840.69 146.164 3860.3 174.346 3884.89C255.024 3955.3 316.443 4059.81 441.48 4054.49C470.776 4052.69 499.816 4044.66 527.896 4030.57C695.369 3949.09 855.513 3689.56 939.882 3756.34" stroke="black" stroke-opacity="0.3" stroke-miterlimit="10"/>
<path d="M-483.191 4657C-219.722 3953.99 -33.4943 3820.36 92.2753 3844.87C229.57 3871.62 281.966 4084.66 451.361 4080.77C650.075 4076.17 848.662 3681.2 951.002 3748.9" stroke="black" stroke-opacity="0.3" stroke-miterlimit="10"/>
<path d="M603.533 3925.26C624.081 3680.36 830.277 3524.89 985.189 3528.01C1163.71 3531.65 1230.99 3745.06 1366.85 3680.15C1490.82 3620.99 1498.12 3412.89 1589.27 3380.1C1673.03 3349.97 1805.57 3475.78 2024 4098.53" stroke="black" stroke-opacity="0.3" stroke-miterlimit="10"/>
<path d="M2013.59 4126.13C1797.81 3512.37 1665.19 3381.7 1580.24 3406.26C1517.28 3424.6 1493.02 3525.64 1443.76 3604.63C1419.17 3645.29 1388.93 3675.1 1355.75 3691.39C1247.07 3744.89 1182.28 3626.48 1066.14 3575.68C1036.54 3562.58 1006.12 3555.35 975.508 3554.13C819.964 3547.07 616.069 3681.84 592.335 3917.82" stroke="black" stroke-opacity="0.3" stroke-miterlimit="10"/>
<path d="M2003.15 4153.64C1790.03 3548.93 1657.41 3413.44 1571.45 3432.46C1508.26 3446.45 1482.56 3542.68 1433.19 3617.65C1408.02 3656.85 1377.82 3685.91 1344.91 3702.64C1237.79 3757.03 1173.04 3650.36 1056.49 3601.93C1026.87 3589.52 996.567 3582.26 966.056 3580.29C809.855 3570.11 608.285 3683.32 581.367 3910.39" stroke="black" stroke-opacity="0.3" stroke-miterlimit="10"/>
<path d="M1992.74 4181.07C1782.32 3585.53 1649.62 3445.27 1562.55 3458.62C1499.09 3468.34 1472.04 3559.67 1422.5 3630.67C1396.79 3668.38 1366.66 3696.72 1334.04 3713.88C1228.39 3769.15 1163.88 3674.19 1046.81 3628.17C1017.16 3616.33 986.938 3609.02 956.501 3606.32C799.669 3592.55 600.424 3684.67 570.321 3902.82" stroke="black" stroke-opacity="0.3" stroke-miterlimit="10"/>
<path d="M1982.32 4208.71C1774.56 3622.08 1641.89 3477.13 1553.63 3484.82C1489.96 3490.32 1461.45 3576.74 1411.76 3643.64C1385.49 3679.88 1355.38 3707.52 1322.99 3725.12C1218.81 3781.28 1154.48 3698.07 1036.83 3654.41C1007.21 3643.27 977.13 3635.95 946.846 3632.52C789.356 3615.15 592.436 3686.24 559.123 3895.47" stroke="black" stroke-opacity="0.3" stroke-miterlimit="10"/>
<path d="M1972.01 4236.26C1766.82 3658.64 1634.08 3504.9 1544.71 3510.98C1480.91 3515.21 1450.86 3593.52 1401.07 3656.65C1374.26 3691.37 1344.16 3718.31 1312.02 3736.36C1209.3 3793.41 1145.21 3721.95 1027.15 3680.7C997.542 3670.13 967.562 3662.76 937.393 3658.64C779.245 3637.51 584.651 3687.67 548.154 3888.03" stroke="black" stroke-opacity="0.3" stroke-miterlimit="10"/>
<path d="M1961.47 4263.82C1759.07 3695.24 1626.43 3541.16 1535.81 3536.93C1471.82 3534.48 1440.22 3610.55 1390.35 3669.71C1363.04 3702.88 1332.95 3729.14 1301.06 3747.64C1199.8 3805.58 1135.86 3745.83 1017.37 3706.99C987.772 3697.05 957.892 3689.66 927.843 3684.84C769.039 3660.12 576.77 3689.07 537.088 3880.64" stroke="black" stroke-opacity="0.3" stroke-miterlimit="10"/>
<path d="M1951.06 4291.37C1751.38 3731.79 1618.71 3572.93 1526.89 3563.34C1462.74 3556.5 1429.53 3627.2 1379.63 3682.69C1351.83 3714.28 1321.74 3739.84 1290.08 3758.76C1190.32 3817.63 1126.53 3769.66 1007.58 3733.1C979.906 3724.65 950.359 3716.54 918.285 3710.83C758.798 3682.39 568.88 3690.59 526.013 3873.16" stroke="black" stroke-opacity="0.3" stroke-miterlimit="10"/>
<path d="M1940.65 4318.92C1743.57 3768.39 1611.01 3605.18 1517.99 3589.42C1453.67 3578.56 1418.81 3643.89 1368.87 3695.62C1340.58 3725.62 1310.47 3750.54 1279.04 3769.96C1180.75 3829.71 1117.15 3793.41 997.728 3759.35C969.925 3751.4 940.454 3743.37 908.632 3736.95C748.691 3704.83 560.997 3692.07 514.945 3865.68" stroke="black" stroke-opacity="0.3" stroke-miterlimit="10"/>
<path d="M1930.2 4346.44C1735.81 3804.95 1603.29 3637.34 1509.07 3615.7C1444.59 3600.87 1407.97 3660.67 1358.23 3708.68C1329.48 3737.07 1299.36 3761.36 1268.17 3781.28C1171.32 3841.93 1107.9 3817.37 988.019 3785.51C960.217 3778.07 930.72 3770.04 899.152 3762.94C738.376 3726.93 553.108 3693.29 503.872 3858.03" stroke="black" stroke-opacity="0.3" stroke-miterlimit="10"/>
<path d="M1919.79 4373.99C1728.08 3841.5 1595.58 3669.59 1500.22 3641.86C1435.59 3623.1 1397.3 3677.28 1347.56 3721.74C1318.37 3748.46 1288.21 3772.1 1257.25 3792.52C1161.89 3854.06 1098.65 3841.21 978.288 3811.96C950.359 3805.12 920.938 3797.05 889.647 3789.31C728.214 3749.42 545.297 3694.99 492.826 3850.8" stroke="black" stroke-opacity="0.3" stroke-miterlimit="10"/>
<path d="M1909.38 4401.55C1720.32 3878.1 1587.82 3701.83 1491.25 3668.03C1426.44 3645.37 1386.46 3693.85 1336.82 3734.75C1308.28 3758.25 1279.06 3781.96 1246.23 3803.77C1152.33 3866.14 1089.27 3865.09 968.455 3838.21C940.45 3831.91 911.08 3823.8 879.992 3815.43C717.901 3771.65 537.31 3696.42 481.679 3843.37" stroke="black" stroke-opacity="0.3" stroke-miterlimit="10"/>
<path d="M1898.96 4429.1C1712.56 3914.83 1580.24 3734.16 1482.35 3694.22C1417.37 3667.64 1375.61 3710.33 1326.1 3747.77C1296.88 3769.87 1267.59 3792.9 1235.26 3815.01C1142.83 3878.4 1079.97 3888.92 958.673 3864.45C930.592 3858.75 901.247 3850.59 870.488 3841.55C707.766 3793.79 529.474 3697.86 470.659 3835.92" stroke="black" stroke-opacity="0.3" stroke-miterlimit="10"/>
<path d="M1888.6 4456.65C1704.83 3951.25 1572.38 3766.53 1473.46 3720.43C1408.3 3690.04 1364.77 3726.77 1315.39 3760.83C1285.46 3781.45 1256.12 3803.85 1224.39 3826.29C1133.4 3890.44 1070.77 3912.84 948.895 3890.78C920.713 3885.58 891.444 3877.38 860.937 3867.75C697.558 3815.94 521.591 3699.3 459.591 3828.49" stroke="black" stroke-opacity="0.3" stroke-miterlimit="10"/>
<path d="M1878.11 4484.16C1697.06 3987.81 1564.69 3798.99 1464.53 3746.59C1399.17 3712.35 1353.9 3743.08 1304.69 3773.8C1274.05 3792.9 1244.61 3814.75 1213.32 3837.49C1123.84 3902.53 1061.34 3936.63 939.106 3916.98C909.636 3911.73 880.346 3903.96 851.351 3893.7C687.365 3838.04 513.623 3700.82 448.514 3821.01" stroke="black" stroke-opacity="0.3" stroke-miterlimit="10"/>
<path d="M1867.7 4511.72C1689.3 4024.41 1556.81 3831.32 1455.71 3772.75C1390.15 3734.71 1343.11 3759.35 1293.95 3786.82C1262.61 3804.36 1233.11 3825.66 1202.35 3848.73C1114.32 3914.66 1052.01 3960.51 929.379 3943.23C899.934 3938.61 870.697 3930.83 841.851 3919.94C677.182 3859.89 505.816 3702.25 437.421 3813.4" stroke="black" stroke-opacity="0.3" stroke-miterlimit="10"/>
<path d="M1857.29 4539.27C1681.57 4060.96 1548.93 3863.94 1446.72 3798.9C1381 3757.15 1332.17 3775.53 1283.26 3799.79C1251.21 3815.72 1221.66 3836.6 1191.41 3859.97C1104.87 3926.79 1042.72 3984.35 919.55 3969.47C890.132 3965.44 860.945 3957.61 832.249 3946.06C667.025 3882.03 497.934 3703.73 426.354 3806.13" stroke="black" stroke-opacity="0.3" stroke-miterlimit="10"/>
<path d="M1846.85 4566.82C1673.81 4097.73 1541.24 3896.44 1437.82 3825.11C1371.82 3779.55 1321.3 3791.63 1272.57 3812.81C1239.71 3827.05 1210.19 3847.5 1180.44 3871.21C1095.36 3938.83 1033.41 4008.22 909.765 3995.75C880.378 3992.28 851.236 3984.41 822.692 3972.22C656.861 3904.01 490.045 3705.17 415.281 3798.69" stroke="black" stroke-opacity="0.3" stroke-miterlimit="10"/>
<path d="M1836.44 4594.38C1666.18 4134.12 1533.41 3929.02 1428.9 3851.43C1362.68 3802.16 1310.46 3807.86 1261.85 3826.08C1228.36 3838.76 1198.66 3858.7 1169.47 3882.71C1085.86 3951.3 1024.09 4032.35 899.987 4022.17C870.631 4019.26 841.531 4011.33 813.142 3998.5C646.704 3926.07 482.036 3706.9 404.214 3791.42" stroke="black" stroke-opacity="0.3" stroke-miterlimit="10"/>
<path d="M1826.02 4621.93C1658.32 4170.72 1525.55 3961.61 1420 3877.47C1353.5 3824.43 1299.61 3823.67 1251.14 3838.84C1216.94 3849.58 1187.21 3869.4 1158.5 3893.78C1076.38 3963.26 1014.79 4056.02 890.205 4048.33C860.881 4046 831.816 4038.01 803.587 4024.54C636.568 3947.75 474.276 3708.09 393.142 3783.82" stroke="black" stroke-opacity="0.3" stroke-miterlimit="10"/>
<path d="M1815.58 4649.45C1650.56 4207.27 1517.69 3994.4 1411.18 3903.63C1344.42 3846.91 1288.89 3839.6 1240.54 3851.86C1205.64 3860.69 1175.84 3880.3 1147.66 3904.89C1066.98 3975.3 1005.56 4079.81 880.522 4074.49C851.225 4072.69 822.185 4064.66 794.106 4050.57C626.632 3969.09 466.488 3709.56 382.119 3776.34" stroke="black" stroke-opacity="0.3" stroke-miterlimit="10"/>
<path d="M1805.19 4677C1541.72 3973.99 1355.5 3840.36 1229.73 3864.87C1092.43 3891.62 1040.04 4104.66 870.641 4100.77C671.927 4096.17 473.339 3701.2 371 3768.9" stroke="black" stroke-opacity="0.3" stroke-miterlimit="10"/>
</g>
<g opacity="0.5" clip-path="url(#clip1_403_311)">
<path d="M-20 5044.5C245.235 4943.49 388.206 4810.27 470.662 4701.28C539.398 4610.42 538.178 4573.25 611.165 4505.46C769.554 4358.36 1072.97 4256.92 1220.02 4383.33C1292.45 4445.61 1265.66 4524.52 1300.31 4673.91C1331.48 4808.3 1412.07 4993.13 1637.07 5194" stroke="black" stroke-opacity="0.3" stroke-miterlimit="10"/>
<path d="M-19.4673 5011.91C238.518 4925.1 380.059 4799.77 462.472 4697.77C531.815 4611.93 537.453 4577.6 614.978 4510.97C777.609 4371.21 1062.55 4273.91 1209.81 4391.86C1285.66 4452.61 1268.41 4530.17 1309 4679.13C1344.74 4810.26 1426.98 4991.93 1648.1 5191" stroke="black" stroke-opacity="0.3" stroke-miterlimit="10"/>
<path d="M-18.9395 4979.33C231.791 4906.71 372.012 4789.24 454.291 4694.27C524.385 4613.36 536.599 4581.94 618.801 4516.49C785.316 4383.9 1052.59 4290.67 1199.62 4400.38C1279.05 4459.65 1271.04 4535.75 1317.71 4684.34C1357.88 4812.19 1441.91 4990.72 1659.17 5187.98" stroke="black" stroke-opacity="0.3" stroke-miterlimit="10"/>
<path d="M-18.4067 4946.74C225.069 4888.32 364.109 4778.68 446.115 4690.73C517.051 4614.7 535.611 4586.26 622.648 4522.01C792.716 4396.4 1043.06 4307.17 1189.44 4408.9C1272.62 4466.7 1273.55 4541.26 1326.44 4689.55C1370.85 4814.09 1456.85 4989.51 1670.22 5184.97" stroke="black" stroke-opacity="0.3" stroke-miterlimit="10"/>
<path d="M-17.8789 4914.15C218.366 4869.93 356.363 4768.12 437.934 4687.24C509.836 4615.96 534.536 4590.53 626.442 4527.52C799.766 4408.73 1033.87 4323.41 1179.22 4417.43C1266.31 4473.75 1275.89 4546.74 1335.12 4694.77C1383.63 4815.98 1471.76 4988.31 1681.23 5181.94" stroke="black" stroke-opacity="0.3" stroke-miterlimit="10"/>
<path d="M-17.3462 4881.57C211.625 4851.54 348.799 4757.55 429.759 4683.74C502.779 4617.16 533.295 4594.73 630.27 4533.04C806.588 4420.84 1025.06 4339.37 1169.03 4425.95C1260.18 4480.77 1278.06 4552.19 1343.83 4699.98C1396.28 4817.88 1486.69 4987.1 1692.28 5178.96" stroke="black" stroke-opacity="0.3" stroke-miterlimit="10"/>
<path d="M-16.8184 4848.98C204.898 4833.18 341.441 4747.03 421.578 4680.23C495.88 4618.28 531.967 4598.87 634.088 4538.55C813.184 4432.76 1016.57 4355.04 1158.83 4434.47C1254.2 4487.72 1280.14 4557.64 1352.54 4705.19C1408.77 4819.79 1501.63 4985.89 1703.32 5175.95" stroke="black" stroke-opacity="0.3" stroke-miterlimit="10"/>
<path d="M-16.2632 4816.39C198.198 4814.77 334.34 4736.56 413.425 4676.72C489.2 4619.38 530.59 4602.91 637.933 4544.06C819.612 4444.48 1008.38 4370.43 1148.66 4442.99C1248.4 4494.59 1282.05 4563.1 1361.27 4710.41C1421.12 4821.73 1516.54 4984.66 1714.37 5172.94" stroke="black" stroke-opacity="0.3" stroke-miterlimit="10"/>
<path d="M-15.7529 4783.8C191.454 4796.38 327.443 4726.19 405.226 4673.21C482.699 4620.45 529.049 4606.84 641.739 4549.58C825.856 4456 1000.41 4385.53 1138.44 4451.52C1242.69 4501.34 1283.76 4568.6 1369.96 4715.62C1433.33 4823.71 1531.46 4983.47 1725.44 5169.94" stroke="black" stroke-opacity="0.3" stroke-miterlimit="10"/>
<path d="M-15.2251 4751.23C184.732 4778 320.816 4715.97 397.046 4669.71C476.398 4621.56 527.468 4610.71 645.557 4555.1C831.96 4467.34 992.635 4400.36 1128.24 4460.05C1237.11 4507.97 1285.33 4574.17 1378.67 4720.85C1445.42 4825.75 1546.39 4982.27 1736.46 5166.94" stroke="black" stroke-opacity="0.3" stroke-miterlimit="10"/>
<path d="M-14.6924 4718.63C178.033 4759.6 314.453 4705.89 388.875 4666.19C470.355 4622.72 525.834 4614.42 649.384 4560.61C837.988 4478.47 985.048 4414.9 1118.05 4468.56C1231.66 4514.4 1286.76 4579.79 1387.38 4726.05C1457.38 4827.82 1561.32 4981.05 1747.51 5163.91" stroke="black" stroke-opacity="0.3" stroke-miterlimit="10"/>
<path d="M-14.1646 4686.04C171.283 4741.21 308.328 4696.04 380.694 4662.68C464.537 4624.02 524.162 4618.01 653.202 4566.12C843.939 4489.44 977.594 4429.19 1107.85 4477.08C1226.31 4520.64 1288.03 4585.52 1396.08 4731.26C1469.25 4829.96 1576.24 4979.85 1758.54 5160.91" stroke="black" stroke-opacity="0.3" stroke-miterlimit="10"/>
<path d="M-13.6318 4653.45C164.561 4722.82 302.419 4686.45 372.518 4659.17C458.943 4625.53 522.414 4621.48 657.03 4571.63C849.847 4500.24 970.241 4443.22 1097.66 4485.61C1221.04 4526.65 1289.17 4591.35 1404.79 4736.48C1481.03 4832.17 1591.17 4978.63 1769.59 5157.9" stroke="black" stroke-opacity="0.3" stroke-miterlimit="10"/>
<path d="M-13.0996 4620.87C157.843 4704.43 296.687 4677.13 364.342 4655.66C453.546 4627.35 520.655 4624.82 660.843 4577.15C855.711 4510.89 962.944 4457.05 1087.46 4494.13C1215.87 4532.39 1290.17 4597.3 1413.49 4741.69C1492.74 4834.46 1606.09 4977.44 1780.64 5154.88" stroke="black" stroke-opacity="0.3" stroke-miterlimit="10"/>
<path d="M-12.5713 4588.28C151.117 4686.05 291.065 4668.12 356.142 4652.15C448.268 4629.55 518.855 4628.04 664.657 4582.67C861.567 4521.39 955.673 4470.61 1077.25 4502.65C1210.75 4537.84 1291.04 4603.39 1422.19 4746.92C1504.36 4836.84 1621 4976.23 1791.66 5151.9" stroke="black" stroke-opacity="0.3" stroke-miterlimit="10"/>
<path d="M-12.0391 4555.69C144.418 4667.66 285.495 4659.42 347.985 4648.64C443.105 4632.24 517.082 4631.12 668.498 4588.18C867.441 4531.74 948.434 4483.98 1067.07 4511.17C1205.69 4542.95 1291.84 4609.6 1430.92 4752.12C1515.98 4839.28 1635.95 4975.01 1802.73 5148.88" stroke="black" stroke-opacity="0.3" stroke-miterlimit="10"/>
<path d="M-11.4839 4523.11C137.695 4649.27 280.57 4634.68 339.832 4645.13C436.764 4662.23 515.313 4634.07 672.349 4593.7C873.348 4542 941.146 4497.15 1056.88 4519.7C1200.63 4547.69 1292.52 4616 1439.63 4757.33C1527.53 4841.79 1650.87 4973.8 1813.77 5145.85" stroke="black" stroke-opacity="0.3" stroke-miterlimit="10"/>
<path d="M-10.9785 4490.52C130.95 4630.88 275.528 4629.4 331.629 4641.62C429.957 4663.04 513.494 4636.91 676.144 4599.21C879.271 4552.12 933.77 4510.13 1046.68 4528.22C1195.55 4552.05 1293.13 4622.53 1448.33 4762.56C1539.06 4844.4 1665.8 4972.6 1824.81 5142.87" stroke="black" stroke-opacity="0.3" stroke-miterlimit="10"/>
<path d="M-10.4414 4457.93C124.232 4612.49 269.834 4624.64 323.457 4638.11C423.555 4663.27 511.716 4639.61 679.976 4604.7C885.236 4562.14 926.311 4522.95 1036.49 4536.72C1190.45 4555.96 1293.67 4629.21 1457.05 4767.74C1550.59 4847.05 1680.73 4971.37 1835.87 5139.83" stroke="black" stroke-opacity="0.3" stroke-miterlimit="10"/>
<path d="M-9.91309 4425.35C117.506 4594.1 261.744 4627.17 315.282 4634.61C420.736 4649.22 509.959 4642.2 683.8 4610.23C891.255 4572.09 918.715 4535.65 1026.3 4545.25C1185.25 4559.46 1294.14 4636.1 1465.76 4772.98C1562.11 4849.82 1695.67 4970.17 1846.91 5136.85" stroke="black" stroke-opacity="0.3" stroke-miterlimit="10"/>
<path d="M-9.38086 4392.76C110.783 4575.71 255.079 4619.5 307.101 4631.09C414.056 4654.92 508.215 4644.68 687.617 4615.74C897.315 4581.94 910.95 4548.21 1016.1 4553.78C1179.94 4562.46 1294.58 4643.09 1474.46 4778.18C1573.62 4852.64 1710.58 4968.95 1857.96 5133.83" stroke="black" stroke-opacity="0.3" stroke-miterlimit="10"/>
<path d="M-8.85254 4360.17C104.062 4557.32 247.956 4611.83 298.921 4627.58C406.761 4660.94 506.5 4647.04 691.44 4621.26C903.444 4591.72 902.999 4560.66 1005.9 4562.31C1174.48 4565.01 1294.99 4650.26 1483.18 4783.4C1585.15 4855.53 1725.51 4967.76 1869 5130.83" stroke="black" stroke-opacity="0.3" stroke-miterlimit="10"/>
</g>
<g opacity="0.6">
<path d="M0.352539 5771C357.102 5799.98 851.812 6129.36 806.158 6243.9C776.221 6318.98 425.483 6317.29 329.66 6330.83C198.985 6349.28 446.414 6280.24 496.808 6200.43C556.682 6105.58 465.799 5856.25 754.117 5900.09C1005.74 5938.37 1060.22 6062.35 1240.59 6059.48C1403.73 6056.84 1530.81 5952.78 1612.31 5865.84" stroke="black" stroke-opacity="0.3" stroke-miterlimit="10"/>
<path d="M0.322266 5778.6C342.103 5810.91 818.027 6129.9 779.982 6239.64C755.035 6311.54 422.859 6309.14 334.195 6321.31C211.279 6338.16 448.155 6271.81 498.125 6195.24C557.999 6103.42 475.373 5864.81 753.713 5907.09C1002.02 5944.69 1052.14 6071.56 1234.13 6071.74C1397.56 6071.58 1529.66 5969.77 1614.75 5884.69" stroke="black" stroke-opacity="0.3" stroke-miterlimit="10"/>
<path d="M0.29248 5786.16C327.105 5821.81 784.244 6130.37 753.832 6235.35C733.874 6304.05 420.234 6300.95 338.731 6311.75C223.548 6326.95 449.897 6263.34 499.443 6189.99C559.317 6101.21 484.973 5873.35 753.309 5914.04C998.293 5950.99 1044.05 6081.07 1227.69 6083.97C1391.39 6086.6 1528.5 5986.74 1617.22 5903.5" stroke="black" stroke-opacity="0.3" stroke-miterlimit="10"/>
<path d="M0.29248 5793.78C312.137 5832.77 750.489 6130.86 727.687 6231.1C712.719 6296.59 417.615 6292.81 343.271 6302.24C235.772 6315.7 451.668 6254.87 500.765 6184.76C560.813 6099 494.578 5881.89 752.934 5920.98C994.576 5957.29 1035.91 6090.45 1221.2 6096.18C1385.18 6101.3 1527.33 6003.72 1619.66 5922.3" stroke="black" stroke-opacity="0.3" stroke-miterlimit="10"/>
<path d="M0.274902 5801.36C297.3 5843.69 716.718 6131.28 701.55 6226.84C691.571 6289.08 415.028 6284.62 347.844 6292.62C248.054 6304.48 453.472 6246.41 502.094 6179.53C562.243 6096.8 504.19 5890.44 752.543 5927.94C990.866 5963.58 1027.81 6099.68 1214.8 6108.4C1379 6116.05 1526.24 6020.69 1622.14 5941.11" stroke="black" stroke-opacity="0.3" stroke-miterlimit="10"/>
<path d="M0.249512 5808.95C282.356 5854.62 682.939 6131.68 675.379 6222.57C670.39 6281.53 412.433 6276.44 352.384 6283.07C260.377 6293.21 455.317 6237.94 503.416 6174.3C563.689 6094.58 513.794 5899 752.168 5934.91C987.124 5969.91 1019.68 6108.98 1208.33 6120.64C1372.81 6130.81 1525.17 6037.65 1624.61 5959.93" stroke="black" stroke-opacity="0.3" stroke-miterlimit="10"/>
<path d="M0.249512 5816.55C267.413 5865.55 649.135 6131.88 649.235 6218.31C649.235 6273.94 409.738 6268.24 356.924 6273.51C272.652 6281.9 457.163 6229.48 504.738 6169.09C565.161 6092.37 523.374 5907.52 751.719 5941.87C983.357 5976.2 1011.47 6118.25 1201.85 6132.88C1366.5 6145.52 1523.89 6054.67 1627.03 5978.76" stroke="black" stroke-opacity="0.3" stroke-miterlimit="10"/>
<path d="M0.228027 5824.14C252.447 5876.47 615.284 6132.07 623.093 6214.05C628.082 6266.32 407.297 6260.02 361.493 6263.96C284.929 6270.54 459.088 6221.03 506.189 6163.85C566.811 6090.08 532.982 5916.31 751.498 5948.82C979.668 5982.76 1003.47 6127.49 1195.56 6145.09C1360.54 6160.21 1522.92 6071.64 1629.65 5997.56" stroke="black" stroke-opacity="0.3" stroke-miterlimit="10"/>
<path d="M0.197266 5831.73C237.498 5887.41 581.325 6132.19 596.917 6209.78C606.746 6258.64 404.821 6251.79 366.028 6254.39C297.247 6259.03 461.003 6212.57 507.405 6158.64C568.203 6087.93 542.332 5924.9 750.993 5955.79C975.82 5989.1 995.254 6136.71 1189 6157.33C1354.2 6174.9 1521.67 6088.63 1631.99 6016.38" stroke="black" stroke-opacity="0.3" stroke-miterlimit="10"/>
<path d="M0.197266 5839.31C222.555 5898.33 547.272 6132.2 570.772 6205.51C585.341 6250.92 402.376 6243.51 370.568 6244.84C309.596 6247.39 462.874 6204.11 508.728 6153.41C569.799 6085.72 552.037 5933.43 750.719 5962.77C972.203 5995.45 987.246 6145.93 1182.66 6169.58C1348.11 6189.58 1520.65 6105.62 1634.58 6035.21" stroke="black" stroke-opacity="0.3" stroke-miterlimit="10"/>
<path d="M0.175781 5846.9C207.614 5909.26 513.022 6132.14 544.631 6201.24C563.79 6243.16 400.135 6235.21 374.987 6235.29C321.999 6235.45 464.799 6195.67 509.929 6148.18C571.3 6083.49 561.495 5942.01 750.099 5969.72C968.215 6001.78 978.867 6155.11 1175.98 6181.8C1341.68 6204.19 1519.26 6122.6 1636.78 6054.03" stroke="black" stroke-opacity="0.3" stroke-miterlimit="10"/>
<path d="M0.149902 5854.5C192.67 5920.18 478.544 6131.99 518.485 6196.99C542.06 6235.36 397.339 6229.04 379.677 6225.73C335.07 6228.36 466.993 6187.23 511.375 6142.97C573.095 6081.28 571.249 5950.55 749.823 5976.69C964.621 6008.11 970.883 6164.28 1169.64 6194.04C1335.62 6218.87 1518.23 6139.59 1639.38 6072.85" stroke="black" stroke-opacity="0.3" stroke-miterlimit="10"/>
<path d="M0.149902 5862.09C177.701 5931.11 443.717 6131.8 492.315 6192.72C520.106 6227.55 394.795 6221.01 384.217 6216.18C347.444 6217.39 469.213 6178.8 512.697 6137.74C574.841 6079.07 580.829 5959.1 749.424 5983.62C960.879 6014.4 962.775 6173.41 1163.2 6206.23C1329.45 6233.46 1517.08 6156.55 1641.85 6091.63" stroke="black" stroke-opacity="0.3" stroke-miterlimit="10"/>
<path d="M0.132812 5869.68C162.766 5942.03 408.524 6131.61 466.178 6188.45C497.911 6219.75 392.233 6212.99 388.84 6206.62C359.876 6206.39 471.491 6170.37 514.102 6132.52C576.745 6076.85 590.516 5967.64 749.132 5990.61C957.245 6020.75 954.775 6182.58 1156.85 6218.5C1323.37 6248.1 1516.09 6173.57 1644.37 6110.48" stroke="black" stroke-opacity="0.3" stroke-miterlimit="10"/>
<path d="M0.0942383 5877.26C147.809 5952.97 372.885 6131.49 440.019 6184.18C475.444 6211.99 389.675 6204.97 393.292 6197.07C372.162 6195.39 473.673 6161.96 515.335 6127.25C578.577 6074.56 600.032 5976.14 748.645 5997.53C953.439 6027.02 946.603 6191.65 1150.3 6230.68C1317.12 6262.67 1514.81 6190.51 1646.76 6129.25" stroke="black" stroke-opacity="0.3" stroke-miterlimit="10"/>
<path d="M0.0942383 5884.85C132.865 5963.89 336.886 6131.56 413.849 6179.92C452.742 6204.32 387.105 6196.95 397.858 6187.52C384.536 6184.41 476.018 6153.57 516.658 6122.08C580.598 6072.52 609.637 5984.7 748.246 6004.54C949.722 6033.36 938.545 6200.81 1143.86 6242.96C1311.01 6277.29 1513.66 6207.53 1649.23 6148.12" stroke="black" stroke-opacity="0.3" stroke-miterlimit="10"/>
<path d="M0.0639648 5892.44C117.916 5974.82 300.332 6131.89 387.699 6175.65C429.885 6196.79 384.555 6188.93 402.393 6177.95C396.904 6173.41 478.433 6145.22 517.975 6116.85C582.713 6070.4 619.237 5993.22 747.866 6011.47C945.999 6039.62 930.507 6209.84 1137.4 6255.16C1304.87 6291.83 1512.51 6224.48 1651.66 6166.9" stroke="black" stroke-opacity="0.3" stroke-miterlimit="10"/>
<path d="M0.0512695 5900.04C102.96 5985.74 263.672 6132.57 361.566 6171.39C406.995 6189.4 381.998 6180.9 406.945 6168.4C409.291 6162.42 480.965 6136.89 519.209 6111.62C584.921 6068.34 628.779 6001.74 747.379 6018.46C942.195 6045.92 922.411 6218.97 1130.87 6267.42C1298.67 6306.43 1511.3 6241.5 1654.05 6185.75" stroke="black" stroke-opacity="0.3" stroke-miterlimit="10"/>
<path d="M0.0512695 5907.63C88.0162 5996.67 226.949 6133.62 335.421 6167.13C384.118 6182.17 383.046 6174.9 411.486 6158.85C423.336 6152.16 483.559 6128.56 520.656 6106.4C587.466 6066.38 638.508 6010.24 747.105 6025.43C938.602 6052.2 914.503 6228.04 1124.51 6279.66C1292.68 6320.99 1510.25 6258.48 1656.62 6204.58" stroke="black" stroke-opacity="0.3" stroke-miterlimit="10"/>
<path d="M0.0209961 5915.25C73.0673 6007.63 190.42 6135.05 309.37 6162.9C361.536 6175.12 378.625 6165.97 416.171 6149.33C435.006 6140.98 486.348 6120.44 522.098 6101.21C590.23 6064.58 648.233 6018.79 746.825 6032.42C935.029 6058.46 906.639 6237.14 1118.19 6291.92C1286.74 6335.58 1509.22 6275.51 1659.18 6223.42" stroke="black" stroke-opacity="0.3" stroke-miterlimit="10"/>
<path d="M0 5922.8C58.1277 6018.53 154.251 6136.67 283.105 6158.59C338.912 6168.09 374.936 6157.27 420.59 6139.74C446.735 6129.69 488.947 6112.26 523.299 6095.96C592.953 6062.88 657.791 6027.17 746.305 6039.31C931.316 6064.47 898.71 6245.96 1111.61 6304.08C1280.66 6349.94 1507.95 6292.41 1661.53 6242.17" stroke="black" stroke-opacity="0.3" stroke-miterlimit="10"/>
<path d="M0 5930.39C43.1842 6029.45 118.526 6138.51 256.96 6154.32C435.758 6174.8 573.618 6023.07 745.931 6046.31C927.599 6070.82 890.627 6255.18 1105.18 6316.34C1274.49 6364.63 1506.83 6309.44 1664 6261.02" stroke="black" stroke-opacity="0.3" stroke-miterlimit="10"/>
</g>
<defs>
<filter id="filter0_f_403_311" x="944.422" y="-460.857" width="917.25" height="1104.62" filterUnits="userSpaceOnUse" color-interpolation-filters="sRGB">
<feFlood flood-opacity="0" result="BackgroundImageFix"/>
<feBlend mode="normal" in="SourceGraphic" in2="BackgroundImageFix" result="shape"/>
<feGaussianBlur stdDeviation="100" result="effect1_foregroundBlur_403_311"/>
</filter>
<filter id="filter1_f_403_311" x="-163.016" y="99.1812" width="1341.08" height="1015.81" filterUnits="userSpaceOnUse" color-interpolation-filters="sRGB">
<feFlood flood-opacity="0" result="BackgroundImageFix"/>
<feBlend mode="normal" in="SourceGraphic" in2="BackgroundImageFix" result="shape"/>
<feGaussianBlur stdDeviation="75" result="effect1_foregroundBlur_403_311"/>
</filter>
<filter id="filter2_f_403_311" x="-634.708" y="2133.29" width="1690.31" height="1513.69" filterUnits="userSpaceOnUse" color-interpolation-filters="sRGB">
<feFlood flood-opacity="0" result="BackgroundImageFix"/>
<feBlend mode="normal" in="SourceGraphic" in2="BackgroundImageFix" result="shape"/>
<feGaussianBlur stdDeviation="150" result="effect1_foregroundBlur_403_311"/>
</filter>
<filter id="filter3_f_403_311" x="-634.708" y="4974.29" width="1690.31" height="1513.69" filterUnits="userSpaceOnUse" color-interpolation-filters="sRGB">
<feFlood flood-opacity="0" result="BackgroundImageFix"/>
<feBlend mode="normal" in="SourceGraphic" in2="BackgroundImageFix" result="shape"/>
<feGaussianBlur stdDeviation="150" result="effect1_foregroundBlur_403_311"/>
</filter>
<filter id="filter4_f_403_311" x="-441.654" y="687.99" width="1392.15" height="1523.78" filterUnits="userSpaceOnUse" color-interpolation-filters="sRGB">
<feFlood flood-opacity="0" result="BackgroundImageFix"/>
<feBlend mode="normal" in="SourceGraphic" in2="BackgroundImageFix" result="shape"/>
<feGaussianBlur stdDeviation="100" result="effect1_foregroundBlur_403_311"/>
</filter>
<filter id="filter5_f_403_311" x="-450.109" y="3514.12" width="1578.13" height="1317.91" filterUnits="userSpaceOnUse" color-interpolation-filters="sRGB">
<feFlood flood-opacity="0" result="BackgroundImageFix"/>
<feBlend mode="normal" in="SourceGraphic" in2="BackgroundImageFix" result="shape"/>
<feGaussianBlur stdDeviation="100" result="effect1_foregroundBlur_403_311"/>
</filter>
<filter id="filter6_f_403_311" x="661.09" y="1169.72" width="1529.88" height="1389" filterUnits="userSpaceOnUse" color-interpolation-filters="sRGB">
<feFlood flood-opacity="0" result="BackgroundImageFix"/>
<feBlend mode="normal" in="SourceGraphic" in2="BackgroundImageFix" result="shape"/>
<feGaussianBlur stdDeviation="100" result="effect1_foregroundBlur_403_311"/>
</filter>
<filter id="filter7_f_403_311" x="493.428" y="1847.43" width="1731.14" height="1450.47" filterUnits="userSpaceOnUse" color-interpolation-filters="sRGB">
<feFlood flood-opacity="0" result="BackgroundImageFix"/>
<feBlend mode="normal" in="SourceGraphic" in2="BackgroundImageFix" result="shape"/>
<feGaussianBlur stdDeviation="150" result="effect1_foregroundBlur_403_311"/>
</filter>
<filter id="filter8_f_403_311" x="493.428" y="4720.43" width="1731.14" height="1450.47" filterUnits="userSpaceOnUse" color-interpolation-filters="sRGB">
<feFlood flood-opacity="0" result="BackgroundImageFix"/>
<feBlend mode="normal" in="SourceGraphic" in2="BackgroundImageFix" result="shape"/>
<feGaussianBlur stdDeviation="150" result="effect1_foregroundBlur_403_311"/>
</filter>
<linearGradient id="paint0_linear_403_311" x1="1685.92" y1="208.937" x2="1259.37" y2="-118.715" gradientUnits="userSpaceOnUse">
<stop stop-color="#267DFF"/>
<stop offset="0.555364" stop-color="#ED0080"/>
<stop offset="1" stop-color="#00FFE0"/>
</linearGradient>
<linearGradient id="paint1_linear_403_311" x1="-207.96" y1="387.75" x2="345.282" y2="1332.93" gradientUnits="userSpaceOnUse">
<stop stop-color="#267DFF"/>
<stop offset="0.555364" stop-color="#ED0080"/>
<stop offset="1" stop-color="#0075FF"/>
</linearGradient>
<linearGradient id="paint2_linear_403_311" x1="-193.5" y1="2720.59" x2="-193.5" y2="3954.39" gradientUnits="userSpaceOnUse">
<stop stop-color="#5454D4"/>
<stop offset="1" stop-color="#5454D4" stop-opacity="0.42"/>
</linearGradient>
<linearGradient id="paint3_linear_403_311" x1="-193.5" y1="5561.59" x2="-193.5" y2="6795.39" gradientUnits="userSpaceOnUse">
<stop stop-color="#5454D4"/>
<stop offset="1" stop-color="#5454D4" stop-opacity="0.42"/>
</linearGradient>
<linearGradient id="paint4_linear_403_311" x1="675.363" y1="2478.83" x2="836.27" y2="1027.48" gradientUnits="userSpaceOnUse">
<stop stop-color="#267DFF"/>
<stop offset="0.555364" stop-color="#ED0080"/>
<stop offset="0.837522" stop-color="#00FFE0"/>
</linearGradient>
<linearGradient id="paint5_linear_403_311" x1="1416.91" y1="3858.16" x2="-11.906" y2="3556.81" gradientUnits="userSpaceOnUse">
<stop stop-color="#267DFF"/>
<stop offset="0.555364" stop-color="#ED0080"/>
<stop offset="0.837522" stop-color="#00FFE0"/>
</linearGradient>
<linearGradient id="paint6_linear_403_311" x1="805.289" y1="963.785" x2="927.413" y2="2418.92" gradientUnits="userSpaceOnUse">
<stop stop-color="#267DFF"/>
<stop offset="0.555364" stop-color="#ED0080"/>
<stop offset="0.909375" stop-color="#00FFE0"/>
</linearGradient>
<linearGradient id="paint7_linear_403_311" x1="1175" y1="3083.33" x2="1175" y2="4317.12" gradientUnits="userSpaceOnUse">
<stop stop-color="#C254D4"/>
<stop offset="1" stop-color="#C254D4" stop-opacity="0.42"/>
</linearGradient>
<linearGradient id="paint8_linear_403_311" x1="1175" y1="5956.33" x2="1175" y2="7190.12" gradientUnits="userSpaceOnUse">
<stop stop-color="#C254D4"/>
<stop offset="1" stop-color="#C254D4" stop-opacity="0.42"/>
</linearGradient>
<clipPath id="clip0_403_311">
<rect width="1601" height="908" fill="white" transform="translate(-1 3356)"/>
</clipPath>
<clipPath id="clip1_403_311">
<rect width="1600" height="868" fill="white" transform="translate(0 4326)"/>
</clipPath>
</defs>
</svg>
