<svg width="153" height="38" fill="none" xmlns="http://www.w3.org/2000/svg"><path d="M23.028 37H.834V.982h6.318v30.456h15.876V37Zm37.332-4.59c-3.456 3.492-7.866 5.238-13.23 5.238-5.364 0-9.774-1.746-13.23-5.238-3.456-3.528-5.184-7.992-5.184-13.392 0-5.4 1.728-9.846 5.184-13.338C37.356 2.152 41.766.388 47.13.388c5.364 0 9.774 1.764 13.23 5.292 3.456 3.492 5.184 7.938 5.184 13.338 0 5.4-1.728 9.864-5.184 13.392Zm-13.23-.378c3.564 0 6.444-1.224 8.64-3.672 2.196-2.484 3.294-5.598 3.294-9.342 0-3.78-1.098-6.894-3.294-9.342-2.196-2.448-5.076-3.672-8.64-3.672-3.6 0-6.498 1.224-8.694 3.672-2.16 2.448-3.24 5.562-3.24 9.342 0 3.78 1.08 6.894 3.24 9.342 2.196 2.448 5.094 3.672 8.694 3.672Zm45.017 5.67c-5.328 0-9.81-1.728-13.446-5.184-3.636-3.456-5.454-7.956-5.454-13.5S75.065 8.992 78.7 5.572C82.337 2.116 86.819.388 92.147.388c6.192 0 11.034 2.502 14.526 7.506l-5.184 2.916c-1.008-1.404-2.34-2.556-3.996-3.456-1.62-.9-3.402-1.35-5.346-1.35-3.564 0-6.534 1.224-8.91 3.672-2.34 2.448-3.51 5.562-3.51 9.342 0 3.78 1.17 6.912 3.51 9.396 2.376 2.448 5.346 3.672 8.91 3.672 1.692 0 3.294-.324 4.806-.972 1.548-.648 2.79-1.404 3.726-2.268V23.23H89.933v-5.562h17.064v13.5c-3.924 4.356-8.874 6.534-14.85 6.534Zm54.691-5.292c-3.456 3.492-7.866 5.238-13.23 5.238-5.364 0-9.774-1.746-13.23-5.238-3.456-3.528-5.184-7.992-5.184-13.392 0-5.4 1.728-9.846 5.184-13.338 3.456-3.528 7.866-5.292 13.23-5.292 5.364 0 9.774 1.764 13.23 5.292 3.456 3.492 5.184 7.938 5.184 13.338 0 5.4-1.728 9.864-5.184 13.392Zm-13.23-.378c3.564 0 6.444-1.224 8.64-3.672 2.196-2.484 3.294-5.598 3.294-9.342 0-3.78-1.098-6.894-3.294-9.342-2.196-2.448-5.076-3.672-8.64-3.672-3.6 0-6.498 1.224-8.694 3.672-2.16 2.448-3.24 5.562-3.24 9.342 0 3.78 1.08 6.894 3.24 9.342 2.196 2.448 5.094 3.672 8.694 3.672Z" fill="#000"/></svg>