<svg width="156" height="35" viewBox="0 0 156 35" fill="none" xmlns="http://www.w3.org/2000/svg">
<path d="M13.31 24.47L12.5 30.14V0.493997H0.62V35H32.48V24.47H13.31ZM44.8131 10.97H67.8711L61.3911 11.78V23.66L67.8711 24.47H44.7051L51.1311 23.66V11.78L44.8131 10.97ZM73.4871 35V0.493997H38.9811V35H73.4871ZM114.538 10.97V0.493997H80.0316V35C91.4256 35 103.198 35 114.538 35C114.538 27.656 114.538 20.366 114.538 13.076H97.0416V22.796H103.252V24.47H92.1816L91.3716 29.6C91.3716 13.778 91.3716 21.122 91.3716 5.3L92.1816 10.97C99.4176 10.97 107.248 10.97 114.538 10.97ZM126.914 10.97H149.972L143.492 11.78V23.66L149.972 24.47H126.806L133.232 23.66V11.78L126.914 10.97ZM155.588 35V0.493997H121.082V35H155.588Z" fill="black"/>
</svg>
