<svg width="69" height="69" fill="none" xmlns="http://www.w3.org/2000/svg"><path fill-rule="evenodd" clip-rule="evenodd" d="M34.5 69C53.554 69 69 53.554 69 34.5 69 15.446 53.554 0 34.5 0 15.446 0 0 15.446 0 34.5 0 53.554 15.446 69 34.5 69Z" fill="#FEDC5A" fill-opacity=".1"/><path d="M31 35.333a5.622 5.622 0 0 0-2.16 1.907 1.37 1.37 0 0 0 0 1.52A5.622 5.622 0 0 0 31 40.667M39.28 35.333a5.622 5.622 0 0 1 2.16 1.907 1.37 1.37 0 0 1 0 1.52 5.623 5.623 0 0 1-2.16 1.907" stroke="#FEDC5A" stroke-width="2" stroke-linecap="round" stroke-linejoin="round"/><path d="M31 47.333h8c6.666 0 9.333-2.666 9.333-9.333v-8c0-6.667-2.666-9.333-9.333-9.333h-8c-6.667 0-9.334 2.666-9.334 9.333v8c0 6.667 2.667 9.333 9.334 9.333ZM21.973 28.68l25.627-.013" stroke="#FEDC5A" stroke-width="2" stroke-linecap="round" stroke-linejoin="round"/></svg>