<svg width="69" height="69" fill="none" xmlns="http://www.w3.org/2000/svg"><path fill-rule="evenodd" clip-rule="evenodd" d="M34.5 69C53.554 69 69 53.554 69 34.5 69 15.446 53.554 0 34.5 0 15.446 0 0 15.446 0 34.5 0 53.554 15.446 69 34.5 69Z" fill="#F04037" fill-opacity=".1"/><path d="M48.333 38v-8c0-6.667-2.666-9.333-9.333-9.333h-8c-6.667 0-9.334 2.666-9.334 9.333v8c0 6.667 2.667 9.333 9.334 9.333h8c6.666 0 9.333-2.666 9.333-9.333ZM22.36 27.48h25.28M30.36 20.813v6.48M39.64 20.813v5.88" stroke="#F04037" stroke-width="2" stroke-linecap="round" stroke-linejoin="round"/><path d="M32 37.267v-1.6c0-2.054 1.453-2.894 3.227-1.867l1.386.8 1.387.8c1.773 1.027 1.773 2.707 0 3.733l-1.387.8-1.386.8C33.453 41.76 32 40.92 32 38.867v-1.6 0Z" stroke="#F04037" stroke-width="2" stroke-miterlimit="10" stroke-linecap="round" stroke-linejoin="round"/></svg>