<svg width="69" height="69" fill="none" xmlns="http://www.w3.org/2000/svg"><path fill-rule="evenodd" clip-rule="evenodd" d="M34.5 69C53.554 69 69 53.554 69 34.5 69 15.446 53.554 0 34.5 0 15.446 0 0 15.446 0 34.5 0 53.554 15.446 69 34.5 69Z" fill="#FEDC5A" fill-opacity=".1"/><path d="M42.2 43.667H27.8c-2 0-2.8-.854-2.8-2.974v-1.386c0-2.12.8-2.974 2.8-2.974h14.4c2 0 2.8.854 2.8 2.974v1.386c0 2.12-.8 2.974-2.8 2.974ZM39.533 32.333h-9.067c-2 0-2.8-.853-2.8-2.973v-1.387c0-2.12.8-2.973 2.8-2.973h9.067c2 0 2.8.853 2.8 2.973v1.387c0 2.12-.8 2.973-2.8 2.973ZM35 47.333v-3.2M35 35.333v-2.666" stroke="#FEDC5A" stroke-width="2" stroke-linecap="round" stroke-linejoin="round"/><path d="M35 20.667v3.586" stroke="#292D32" stroke-width="2" stroke-linecap="round" stroke-linejoin="round"/></svg>