<svg width="69" height="69" fill="none" xmlns="http://www.w3.org/2000/svg"><path fill-rule="evenodd" clip-rule="evenodd" d="M34.5 69C53.554 69 69 53.554 69 34.5 69 15.446 53.554 0 34.5 0 15.446 0 0 15.446 0 34.5 0 53.554 15.446 69 34.5 69Z" fill="#F04037" fill-opacity=".1"/><path d="m36.347 21.893 7.867 3.494c2.266 1 2.266 2.653 0 3.653l-7.867 3.493c-.894.4-2.36.4-3.254 0l-7.866-3.493c-2.267-1-2.267-2.653 0-3.653l7.866-3.494c.894-.4 2.36-.4 3.254 0Z" stroke="#F04037" stroke-width="2" stroke-linecap="round" stroke-linejoin="round"/><path d="M23 32.667c0 1.12.84 2.413 1.867 2.866l9.053 4.027a2.65 2.65 0 0 0 2.16 0l9.053-4.027C46.16 35.08 47 33.787 47 32.667" stroke="#F04037" stroke-width="2" stroke-linecap="round" stroke-linejoin="round"/><path d="M23 39.333c0 1.24.733 2.36 1.867 2.867l9.053 4.027a2.65 2.65 0 0 0 2.16 0l9.053-4.027A3.143 3.143 0 0 0 47 39.333" stroke="#F04037" stroke-width="2" stroke-linecap="round" stroke-linejoin="round"/></svg>