<svg width="58" height="58" fill="none" xmlns="http://www.w3.org/2000/svg"><path d="M21.804 11.52c-5.95 6.68-10.033 16.276-10.412 17.18L.833 24.18l11.813-11.813a5.873 5.873 0 0 1 5.28-1.605l3.878.759Zm5.775 31.063s10.909-4.52 17.18-10.791C60.508 16.042 57.883 3.733 57.037.962c-2.771-.875-15.08-3.47-30.83 12.28-6.27 6.27-10.791 17.179-10.791 17.179l12.162 12.162Zm18.9-6.387C39.8 42.146 30.204 46.229 29.3 46.608l4.521 10.559 11.813-11.813a5.873 5.873 0 0 0 1.604-5.279l-.759-3.88ZM21.25 45.5a8.73 8.73 0 0 1-2.567 6.183C15.242 55.125.833 57.167.833 57.167s2.042-14.409 5.484-17.85A8.729 8.729 0 0 1 12.5 36.75a8.738 8.738 0 0 1 8.75 8.75Zm11.667-26.25c0-3.208 2.625-5.833 5.833-5.833 3.209 0 5.834 2.625 5.834 5.833s-2.626 5.833-5.834 5.833c-3.208 0-5.833-2.625-5.833-5.833Z" fill="#6911AD"/></svg>