<svg width="60" height="60" fill="none" xmlns="http://www.w3.org/2000/svg"><path d="m50.621 9.38-4.113 4.112c4.2 4.229 6.825 10.062 6.825 16.508 0 12.892-10.441 23.333-23.333 23.333C17.108 53.333 6.667 42.892 6.667 30c0-11.9 8.896-21.7 20.416-23.13v5.892C18.8 14.162 12.5 21.337 12.5 30c0 9.654 7.846 17.5 17.5 17.5S47.5 39.654 47.5 30c0-4.842-1.954-9.217-5.133-12.367l-4.113 4.113c2.1 2.129 3.413 5.046 3.413 8.254 0 6.446-5.221 11.667-11.667 11.667S18.334 36.446 18.334 30c0-5.425 3.733-9.946 8.75-11.258v6.241c-1.75 1.021-2.917 2.859-2.917 5.017 0 3.208 2.625 5.833 5.833 5.833 3.209 0 5.834-2.625 5.834-5.833a5.74 5.74 0 0 0-2.917-5.017V.833H30C13.9.833.833 13.9.833 30S13.9 59.167 30 59.167 59.167 46.1 59.167 30c0-8.05-3.267-15.342-8.546-20.62Z" fill="#6911AD"/></svg>